<svg width="16" height="15" viewBox="0 0 16 15" fill="none" xmlns="http://www.w3.org/2000/svg">
<path d="M10.3662 0.246826C12.0461 0.246826 12.8866 0.247155 13.5283 0.573975C14.0928 0.861595 14.5522 1.32101 14.8398 1.8855C15.1667 2.52719 15.167 3.36773 15.167 5.04761V9.78003C15.167 11.4599 15.1667 12.3004 14.8398 12.9421C14.5522 13.5066 14.0928 13.966 13.5283 14.2537C12.8866 14.5805 12.0461 14.5808 10.3662 14.5808H9.41699V9.49683H11.334L11.4102 9.49292C11.7883 9.45443 12.084 9.13509 12.084 8.74683C12.0838 8.35869 11.7882 8.03918 11.4102 8.00073L11.334 7.99683H9.41699V7.41382C9.41699 6.7461 9.42386 6.55847 9.45996 6.42358L9.5127 6.26636C9.66054 5.91138 9.96636 5.64092 10.3438 5.53979C10.4786 5.50377 10.6666 5.49683 11.334 5.49683V3.99683C10.7625 3.99683 10.3287 3.99054 9.95508 4.09058C9.0655 4.329 8.35889 4.99589 8.06445 5.86011L8.01074 6.03491C7.9356 6.31533 7.91988 6.62969 7.91699 7.0105V7.99683H6.66699C6.25289 7.99683 5.91717 8.33276 5.91699 8.74683C5.91699 9.16104 6.25278 9.49683 6.66699 9.49683H7.91699V14.5808H5.63379C3.95391 14.5808 3.11337 14.5805 2.47168 14.2537C1.90719 13.966 1.44778 13.5066 1.16016 12.9421C0.833337 12.3004 0.833008 11.4599 0.833008 9.78003V5.04761C0.833008 3.36773 0.833337 2.52719 1.16016 1.8855C1.44778 1.32101 1.90719 0.861595 2.47168 0.573975C3.11337 0.247155 3.95391 0.246826 5.63379 0.246826H10.3662Z" fill="#848A98"/>
</svg>
