<svg width="16" height="16" viewBox="0 0 16 16" fill="none" xmlns="http://www.w3.org/2000/svg">
<path d="M8.00413 1.85205C9.89115 1.85205 10.1146 1.86084 10.8567 1.896C11.5464 1.92822 11.9189 2.05127 12.1672 2.15381C12.4955 2.28857 12.7327 2.45264 12.9782 2.71338C13.2265 2.97705 13.3783 3.22607 13.5052 3.57471C13.6017 3.83838 13.7176 4.23682 13.7479 4.96631C13.7811 5.75732 13.7893 5.99463 13.7893 7.9956C13.7893 9.99951 13.7811 10.2368 13.7479 11.0249C13.7176 11.7573 13.6017 12.1528 13.5052 12.4165C13.3783 12.7651 13.2238 13.0171 12.9782 13.2778C12.7299 13.5415 12.4955 13.7026 12.1672 13.8374C11.9189 13.9399 11.5437 14.063 10.8567 14.0952C10.1119 14.1304 9.88839 14.1392 8.00413 14.1392C6.11712 14.1392 5.89366 14.1304 5.15154 14.0952C4.46184 14.063 4.0894 13.9399 3.84111 13.8374C3.51282 13.7026 3.27556 13.5386 3.03003 13.2778C2.78174 13.0142 2.63 12.7651 2.5031 12.4165C2.40654 12.1528 2.29067 11.7544 2.26032 11.0249C2.22722 10.2339 2.21894 9.99658 2.21894 7.9956C2.21894 5.9917 2.22722 5.75439 2.26032 4.96631C2.29067 4.23389 2.40654 3.83838 2.5031 3.57471C2.63 3.22607 2.78449 2.97412 3.03003 2.71338C3.27832 2.44971 3.51282 2.28857 3.84111 2.15381C4.0894 2.05127 4.4646 1.92822 5.15154 1.896C5.89366 1.86084 6.11712 1.85205 8.00413 1.85205ZM8.00413 0.501465C6.08677 0.501465 5.84676 0.510254 5.09361 0.54541C4.34321 0.580566 3.82732 0.709473 3.38039 0.894043C2.91416 1.0874 2.51965 1.34229 2.1279 1.76123C1.73339 2.17725 1.49338 2.59619 1.3113 3.08838C1.13749 3.56592 1.01611 4.11084 0.983002 4.90771C0.949896 5.71045 0.94162 5.96533 0.94162 8.00146C0.94162 10.0376 0.949896 10.2925 0.983002 11.0923C1.01611 11.8892 1.13749 12.437 1.3113 12.9116C1.49338 13.4067 1.73339 13.8257 2.1279 14.2417C2.51965 14.6577 2.91416 14.9155 3.37764 15.106C3.82732 15.2905 4.34045 15.4194 5.09085 15.4546C5.844 15.4897 6.08401 15.4985 8.00138 15.4985C9.91874 15.4985 10.1588 15.4897 10.9119 15.4546C11.6623 15.4194 12.1782 15.2905 12.6251 15.106C13.0886 14.9155 13.4831 14.6577 13.8748 14.2417C14.2666 13.8257 14.5094 13.4067 14.6887 12.9146C14.8625 12.437 14.9839 11.8921 15.017 11.0952C15.0501 10.2954 15.0584 10.0405 15.0584 8.00439C15.0584 5.96826 15.0501 5.71338 15.017 4.91357C14.9839 4.1167 14.8625 3.56885 14.6887 3.09424C14.5149 2.59619 14.2749 2.17725 13.8804 1.76123C13.4886 1.34521 13.0941 1.0874 12.6306 0.896973C12.1809 0.712402 11.6678 0.583496 10.9174 0.54834C10.1615 0.510254 9.9215 0.501465 8.00413 0.501465Z" fill="#1F1F1F"/>
<path d="M8.00413 4.14893C6.00124 4.14893 4.37631 5.87451 4.37631 8.00146C4.37631 10.1284 6.00124 11.854 8.00413 11.854C10.007 11.854 11.6319 10.1284 11.6319 8.00146C11.6319 5.87451 10.007 4.14893 8.00413 4.14893ZM8.00413 10.5005C6.70474 10.5005 5.65088 9.38135 5.65088 8.00146C5.65088 6.62158 6.70474 5.50244 8.00413 5.50244C9.30352 5.50244 10.3574 6.62158 10.3574 8.00146C10.3574 9.38135 9.30352 10.5005 8.00413 10.5005Z" fill="#1F1F1F"/>
<path d="M12.6224 3.99658C12.6224 4.49463 12.2417 4.896 11.7754 4.896C11.3064 4.896 10.9285 4.4917 10.9285 3.99658C10.9285 3.49854 11.3092 3.09717 11.7754 3.09717C12.2417 3.09717 12.6224 3.50147 12.6224 3.99658Z" fill="#1F1F1F"/>
</svg>
