<svg width="16" height="15" viewBox="0 0 16 15" fill="none" xmlns="http://www.w3.org/2000/svg">
<path d="M10.3662 0.246826C12.0461 0.246826 12.8866 0.247155 13.5283 0.573975C14.0928 0.861595 14.5522 1.32101 14.8398 1.8855C15.1667 2.52719 15.167 3.36773 15.167 5.04761V9.78003C15.167 11.4599 15.1667 12.3004 14.8398 12.9421C14.5522 13.5066 14.0928 13.966 13.5283 14.2537C12.8866 14.5805 12.0461 14.5808 10.3662 14.5808H5.63379C3.95391 14.5808 3.11337 14.5805 2.47168 14.2537C1.90719 13.966 1.44778 13.5066 1.16016 12.9421C0.833337 12.3004 0.833008 11.4599 0.833008 9.78003V5.04761C0.833008 3.36773 0.833337 2.52719 1.16016 1.8855C1.44778 1.32101 1.90719 0.861595 2.47168 0.573975C3.11337 0.247155 3.95391 0.246826 5.63379 0.246826H10.3662ZM5 5.9978C4.58594 5.99798 4.25 6.3337 4.25 6.7478V11.4138C4.25018 11.8278 4.58604 12.1636 5 12.1638C5.41396 12.1636 5.74982 11.8278 5.75 11.4138V6.7478C5.75 6.3337 5.41406 5.99798 5 5.9978ZM9.66699 5.9978C8.14821 5.9978 6.91699 7.22902 6.91699 8.7478V11.4138C6.91717 11.8279 7.25289 12.1638 7.66699 12.1638C8.08095 12.1636 8.41682 11.8278 8.41699 11.4138V8.7478C8.41699 8.05745 8.97664 7.4978 9.66699 7.4978C10.3572 7.49798 10.917 8.05756 10.917 8.7478V11.4138C10.9172 11.8279 11.2529 12.1638 11.667 12.1638C12.0809 12.1636 12.4168 11.8278 12.417 11.4138V8.7478C12.417 7.22913 11.1856 5.99798 9.66699 5.9978ZM5 3.33081C4.43921 3.33098 3.97829 3.75727 3.92285 4.30347L3.91699 4.41382L3.92285 4.52515C3.9786 5.07102 4.43944 5.49764 5 5.4978C5.59805 5.49763 6.08381 5.01187 6.08398 4.41382C6.08382 3.85326 5.6572 3.39242 5.11133 3.33667L5 3.33081ZM4.66699 4.66089C4.63154 4.61307 4.60417 4.55824 4.5918 4.4978L4.58398 4.41382C4.58406 4.32091 4.61552 4.23601 4.66699 4.16675V4.66089ZM5.33398 4.16675C5.36933 4.21444 5.39581 4.26958 5.4082 4.32983L5.41699 4.41382L5.4082 4.4978C5.39584 4.55818 5.36938 4.61311 5.33398 4.66089V4.16675Z" fill="#848A98"/>
</svg>
