<svg width="16" height="16" viewBox="0 0 16 16" fill="none" xmlns="http://www.w3.org/2000/svg">
<path d="M13.976 0.5H2.02404C1.73587 0.5 1.45951 0.621566 1.25574 0.837954C1.05197 1.05434 0.9375 1.34783 0.9375 1.65385V14.3462C0.9375 14.6522 1.05197 14.9457 1.25574 15.162C1.45951 15.3784 1.73587 15.5 2.02404 15.5H13.976C14.2642 15.5 14.5405 15.3784 14.7443 15.162C14.9481 14.9457 15.0625 14.6522 15.0625 14.3462V1.65385C15.0625 1.34783 14.9481 1.05434 14.7443 0.837954C14.5405 0.621566 14.2642 0.5 13.976 0.5ZM5.82693 11.4615C5.82693 11.6145 5.7697 11.7613 5.66781 11.8695C5.56593 11.9777 5.42775 12.0385 5.28366 12.0385C5.13958 12.0385 5.0014 11.9777 4.89951 11.8695C4.79763 11.7613 4.74039 11.6145 4.74039 11.4615V6.84615C4.74039 6.69314 4.79763 6.5464 4.89951 6.43821C5.0014 6.33001 5.13958 6.26923 5.28366 6.26923C5.42775 6.26923 5.56593 6.33001 5.66781 6.43821C5.7697 6.5464 5.82693 6.69314 5.82693 6.84615V11.4615ZM5.28366 5.69231C5.12249 5.69231 4.96494 5.64155 4.83093 5.54646C4.69691 5.45137 4.59247 5.31622 4.53079 5.15809C4.46911 4.99996 4.45297 4.82596 4.48442 4.65809C4.51586 4.49023 4.59347 4.33603 4.70744 4.215C4.8214 4.09398 4.96661 4.01156 5.12468 3.97817C5.28276 3.94478 5.44661 3.96191 5.59551 4.02741C5.74442 4.09291 5.87169 4.20383 5.96123 4.34614C6.05077 4.48845 6.09857 4.65577 6.09857 4.82692C6.09857 5.05644 6.01271 5.27655 5.85989 5.43884C5.70706 5.60113 5.49979 5.69231 5.28366 5.69231ZM11.8029 11.4615C11.8029 11.6145 11.7457 11.7613 11.6438 11.8695C11.5419 11.9777 11.4037 12.0385 11.2596 12.0385C11.1156 12.0385 10.9774 11.9777 10.8755 11.8695C10.7736 11.7613 10.7164 11.6145 10.7164 11.4615V8.86538C10.7164 8.48286 10.5733 8.116 10.3186 7.84552C10.0639 7.57503 9.7184 7.42308 9.35819 7.42308C8.99798 7.42308 8.65252 7.57503 8.39781 7.84552C8.14311 8.116 8.00001 8.48286 8.00001 8.86538V11.4615C8.00001 11.6145 7.94278 11.7613 7.84089 11.8695C7.73901 11.9777 7.60083 12.0385 7.45674 12.0385C7.31266 12.0385 7.17448 11.9777 7.07259 11.8695C6.97071 11.7613 6.91347 11.6145 6.91347 11.4615V6.84615C6.91415 6.70484 6.96364 6.5687 7.05256 6.46357C7.14148 6.35843 7.26364 6.29161 7.39588 6.27578C7.52811 6.25995 7.66122 6.29622 7.76995 6.37769C7.87868 6.45916 7.95547 6.58018 7.98575 6.71779C8.35327 6.45303 8.78175 6.29959 9.22519 6.27393C9.66863 6.24827 10.1103 6.35137 10.5027 6.57216C10.8951 6.79294 11.2235 7.12307 11.4526 7.5271C11.6816 7.93112 11.8028 8.39378 11.8029 8.86538V11.4615Z" fill="#1F1F1F"/>
</svg>
