<svg width="40" height="18" viewBox="0 0 40 18" fill="none" xmlns="http://www.w3.org/2000/svg">
<path d="M16.2386 7.0325V10.9799C16.2386 10.9799 9.33211 18.3474 5.33458 17.2416C5.23822 17.2183 5.14374 17.1883 5.05168 17.1516C1.10952 15.5958 1.10952 2.16586 5.05168 0.802915C5.10615 0.78491 5.1616 0.769917 5.21773 0.757938C9.1968 -0.347879 16.2386 7.0325 16.2386 7.0325Z" fill="#FFA800"/>
<path d="M14.3099 7.03237V10.9797C14.3099 10.9797 9.25843 16.4122 5.31258 17.2415C5.2169 17.2182 5.12295 17.1881 5.03157 17.1514C1.11623 15.5956 1.11623 2.16574 5.03157 0.80279C5.08566 0.784784 5.14073 0.769791 5.19648 0.757812C9.15461 1.59354 14.3099 7.03237 14.3099 7.03237Z" fill="#FEDD0A"/>
<path d="M17.5244 5.78516H22.6675C23.3776 5.78516 23.9533 6.36082 23.9533 7.07096V10.9283C23.9533 11.6384 23.3776 12.2141 22.6675 12.2141H17.5244C16.8142 12.2141 16.2386 11.6384 16.2386 10.9283V7.07096C16.2386 6.36082 16.8143 5.78516 17.5244 5.78516Z" fill="#FFA800"/>
<path d="M17.5244 5.78516H20.7388C21.449 5.78516 22.0246 6.36082 22.0246 7.07096V10.9283C22.0246 11.6384 21.449 12.2141 20.7388 12.2141H17.5244C16.8142 12.2141 16.2386 11.6384 16.2386 10.9283V7.07096C16.2386 6.36082 16.8143 5.78516 17.5244 5.78516Z" fill="#FEDD0A"/>
<path d="M22.6675 12.857H17.5244C16.4597 12.8559 15.5968 11.993 15.5957 10.9283V7.071C15.5968 6.00632 16.4597 5.14346 17.5244 5.14233H22.6675C23.7322 5.14346 24.595 6.00632 24.5962 7.071V10.9283C24.595 11.993 23.7322 12.8559 22.6675 12.857ZM17.5244 6.42814C17.1694 6.42851 16.8818 6.71608 16.8815 7.071V10.9283C16.8819 11.2832 17.1694 11.5709 17.5244 11.5712H22.6675C23.0224 11.5708 23.3101 11.2832 23.3104 10.9283V7.071C23.31 6.71608 23.0224 6.42844 22.6675 6.42814H17.5244Z" fill="black"/>
<path d="M35.6474 17.1516C34.9302 17.3958 34.1576 17.4271 33.423 17.2416C29.27 16.4123 23.9533 10.9799 23.9533 10.9799V7.0325C23.9533 7.0325 29.3793 1.59367 33.5452 0.757941C34.2377 0.587827 34.9628 0.603346 35.6474 0.802918C39.7683 2.16587 39.7683 15.5958 35.6474 17.1516Z" fill="#FFA800"/>
<path d="M33.7187 17.1514C33.6223 17.1882 33.5235 17.2183 33.423 17.2415C29.27 16.4122 23.9533 10.9797 23.9533 10.9797V7.03237C23.9533 7.03237 29.3793 1.59354 33.5452 0.757812C33.6038 0.769791 33.6617 0.784784 33.7187 0.80279C37.8397 2.16574 37.8397 15.5956 33.7187 17.1514Z" fill="#FEDD0A"/>
<path d="M6.76722 17.2414C6.03259 17.4268 5.26 17.3956 4.54285 17.1513C0.421914 15.5955 0.421914 2.16562 4.54285 0.802674C5.22745 0.603102 5.95258 0.587582 6.64509 0.757697C6.58648 0.769675 6.52854 0.784668 6.47151 0.802674C2.35058 2.16562 2.35058 15.5955 6.47151 17.1513C6.56795 17.1881 6.66672 17.2182 6.76722 17.2414Z" fill="white"/>
<path d="M34.4359 17.9997C32.683 17.9997 30.485 17.0526 27.8752 15.1688C26.3214 14.0352 24.8566 12.7844 23.4937 11.4274C23.3762 11.3071 23.3104 11.1457 23.3104 10.9775V7.0319C23.3102 6.86171 23.3778 6.69838 23.4981 6.57799C24.3011 5.77247 31.4771 -1.24651 35.8467 0.194936C38.3398 1.01801 39.3053 5.00967 39.3782 8.47087C39.4605 12.401 38.4082 16.7948 35.8718 17.7513C35.4122 17.9206 34.9257 18.0047 34.4359 17.9997ZM24.5961 10.7128C26.774 12.8819 32.4438 17.6716 35.4185 16.5484C37.0527 15.9319 38.1771 12.546 38.0924 8.49784C38.0158 4.81755 36.9265 1.90542 35.4436 1.41602C32.4583 0.431574 26.7809 5.16381 24.5961 7.29996V10.7128Z" fill="black"/>
<path d="M5.75589 17.9998C5.26619 18.0048 4.77965 17.9208 4.32009 17.7515C2.05429 16.897 1.26512 13.5689 0.997061 11.661C0.963008 11.4325 1.05409 11.2034 1.23573 11.0607C1.4173 10.918 1.66155 10.8836 1.87543 10.9708C2.08932 11.058 2.24007 11.2531 2.27028 11.482C2.6539 14.208 3.58931 16.1019 4.7734 16.5485C7.74987 17.6727 13.4191 12.8817 15.5958 10.7129V7.30007C13.4116 5.16362 7.73668 0.430787 4.74831 1.41614C3.56422 1.80699 2.60554 3.75946 2.24647 6.5115C2.21679 6.73917 2.06785 6.9337 1.85584 7.02177C1.64384 7.10984 1.40088 7.07812 1.21863 6.9386C1.03639 6.79907 0.942366 6.57283 0.972049 6.34516C1.40833 3.00043 2.63763 0.758811 4.34533 0.195054C6.26329 -0.43681 8.94474 0.468155 12.3148 2.88562C13.8637 4.00665 15.3273 5.24092 16.6939 6.5781C16.8142 6.69849 16.8817 6.86183 16.8816 7.03202V10.9776C16.8816 11.1457 16.8158 11.3072 16.6983 11.4274C15.3354 12.7845 13.8706 14.0353 12.3168 15.1689C9.70739 17.0524 7.50879 17.9998 5.75589 17.9998Z" fill="black"/>
<path d="M1.45215 9.64257C1.40898 9.64136 1.36596 9.63707 1.32347 9.62969C1.28332 9.62253 1.24437 9.6095 1.20798 9.59104C1.16684 9.57695 1.12782 9.55736 1.09181 9.53295C1.05979 9.50749 1.02777 9.4818 0.99575 9.45603C0.93902 9.3935 0.893365 9.3217 0.860743 9.2438C0.824581 9.16756 0.806952 9.08386 0.809287 8.99956C0.810342 8.95639 0.814561 8.91337 0.821869 8.87088C0.829101 8.83057 0.84221 8.79155 0.860819 8.75501C0.874756 8.7141 0.894194 8.67522 0.918603 8.63951C0.942335 8.60584 0.968101 8.57367 0.995825 8.54316C1.02619 8.51543 1.05828 8.48967 1.09188 8.46593C1.12782 8.44153 1.16692 8.42201 1.20805 8.40785C1.24444 8.38939 1.28339 8.37643 1.32362 8.36958C1.44891 8.34328 1.57925 8.35669 1.69655 8.40785C1.77445 8.44062 1.84617 8.48635 1.90878 8.54316C2.02713 8.66581 2.09388 8.82922 2.09524 8.99963C2.09418 9.08363 2.07671 9.16658 2.04378 9.24388C2.01267 9.32253 1.96686 9.39456 1.90878 9.45611C1.84609 9.51269 1.77437 9.55834 1.69655 9.59111C1.6191 9.62411 1.53615 9.64159 1.45215 9.64257Z" fill="black"/>
<path d="M23.9526 8.9996C23.6281 8.99922 23.3546 8.75701 23.3152 8.43486C23.2757 8.11272 23.4827 7.81166 23.7976 7.73301L28.9407 6.44721C29.2844 6.36328 29.6313 6.5728 29.7169 6.91604C29.8026 7.25928 29.5949 7.6072 29.2521 7.69466L24.1089 8.98046C24.0579 8.99327 24.0054 8.99968 23.9526 8.9996Z" fill="black"/>
<path d="M29.097 11.5711C29.0443 11.5712 28.9918 11.5648 28.9407 11.552L23.7975 10.2662C23.4547 10.1787 23.247 9.83082 23.3327 9.48757C23.4184 9.14433 23.7652 8.93482 24.1089 9.01874L29.252 10.3045C29.567 10.3832 29.7739 10.6842 29.7344 11.0064C29.695 11.3286 29.4216 11.5708 29.097 11.5711Z" fill="black"/>
<path d="M16.2392 8.9996C16.1866 8.99968 16.1341 8.99327 16.0829 8.98046L10.9398 7.69466C10.597 7.6072 10.3893 7.25928 10.4749 6.91604C10.5606 6.5728 10.9075 6.36328 11.2512 6.44721L16.3943 7.73301C16.7092 7.81166 16.9162 8.11272 16.8767 8.43486C16.8373 8.75701 16.5639 8.9993 16.2392 8.9996Z" fill="black"/>
<path d="M11.0949 11.5711C10.7703 11.5708 10.4969 11.3285 10.4575 11.0064C10.418 10.6843 10.6249 10.3832 10.9398 10.3045L16.083 9.01874C16.4267 8.93482 16.7735 9.14433 16.8592 9.48757C16.9448 9.83082 16.7371 10.1787 16.3943 10.2662L11.2512 11.552C11.2001 11.5648 11.1476 11.5713 11.0949 11.5711Z" fill="black"/>
<path d="M8.52398 5.1423C8.43968 5.14449 8.35605 5.12686 8.27974 5.09085C8.20184 5.05823 8.13011 5.01257 8.06751 4.95584C7.81882 4.70316 7.8204 4.29723 8.07105 4.04651C8.32177 3.79578 8.7277 3.7942 8.98038 4.04297C9.16587 4.22687 9.22154 4.50472 9.12142 4.74595C9.02129 4.98718 8.78518 5.14381 8.52398 5.1423Z" fill="black"/>
<path d="M4.66667 6.428C4.62561 6.42679 4.5847 6.4225 4.54424 6.41512C4.50183 6.40894 4.46069 6.3959 4.42242 6.37647C4.38129 6.36238 4.34226 6.34279 4.30625 6.31838C4.27423 6.29292 4.24221 6.26723 4.21019 6.24146C4.15211 6.17999 4.1063 6.10796 4.07519 6.02923C4.00655 5.87351 4.00655 5.69616 4.07519 5.54051C4.10781 5.46269 4.15346 5.39104 4.21019 5.32859C4.46793 5.09067 4.86526 5.09067 5.12307 5.32859C5.1798 5.39104 5.22545 5.46269 5.25808 5.54051C5.32671 5.69624 5.32671 5.87358 5.25808 6.02923C5.22696 6.10789 5.18115 6.17991 5.12307 6.24146C4.99974 6.35876 4.83678 6.42529 4.66667 6.428Z" fill="black"/>
<path d="M4.02371 10.2855C3.85352 10.283 3.69056 10.2164 3.56723 10.099C3.31861 9.84548 3.31861 9.43963 3.56723 9.18612C3.75188 9.00342 4.02845 8.95001 4.26788 9.05081C4.34578 9.08358 4.41758 9.12932 4.48011 9.18605C4.5058 9.21806 4.53156 9.25008 4.55733 9.2824C4.58144 9.31826 4.60087 9.35706 4.61511 9.3979C4.63372 9.43428 4.64668 9.47339 4.65338 9.51377C4.66084 9.55633 4.66529 9.59935 4.66657 9.64252C4.66401 9.81271 4.59741 9.97567 4.48011 10.099C4.41742 10.1556 4.3457 10.2012 4.26788 10.234C4.19073 10.2669 4.10771 10.2844 4.02371 10.2855Z" fill="black"/>
<path d="M4.66665 13.4998C4.62559 13.4986 4.58468 13.4943 4.54423 13.4869C4.50181 13.4807 4.46067 13.4677 4.4224 13.4483C4.38127 13.4342 4.34224 13.4146 4.30623 13.3902C4.27421 13.3647 4.24219 13.339 4.21017 13.3133C4.09265 13.1901 4.02605 13.0271 4.02371 12.8568C4.02469 12.7727 4.04217 12.6896 4.07517 12.6122C4.10771 12.5344 4.15337 12.4628 4.2101 12.4003L4.30616 12.3231C4.34209 12.2987 4.38119 12.2792 4.42233 12.265C4.46052 12.2456 4.50173 12.2326 4.54415 12.2267C4.75382 12.1877 4.96944 12.2523 5.12297 12.4003C5.1797 12.4628 5.22536 12.5344 5.25798 12.6122C5.32661 12.768 5.32661 12.9453 5.25798 13.101C5.22536 13.1789 5.1797 13.2507 5.12297 13.3132C5.09096 13.3389 5.05833 13.3646 5.02632 13.3901C4.99053 13.4145 4.95173 13.434 4.91082 13.4482C4.87436 13.4666 4.83548 13.4796 4.79533 13.4868C4.75276 13.494 4.70974 13.4983 4.66665 13.4998Z" fill="black"/>
<path d="M8.52398 14.1426C8.43968 14.1448 8.35605 14.1272 8.27973 14.0912C8.20183 14.0586 8.13011 14.0129 8.06751 13.9562C7.81889 13.7027 7.81889 13.2968 8.06751 13.0433C8.12996 12.9864 8.20176 12.9406 8.27973 12.908C8.51916 12.8072 8.79573 12.8606 8.98038 13.0433C9.16586 13.2272 9.22154 13.505 9.12141 13.7463C9.02129 13.9875 8.78518 14.1441 8.52398 14.1426Z" fill="black"/>
<path d="M7.23816 8.99973C7.19499 8.99852 7.15197 8.99423 7.10948 8.98685C7.06932 8.97969 7.03037 8.96666 6.99399 8.9482C6.95285 8.93411 6.91383 8.91452 6.87781 8.89011C6.8458 8.86465 6.81378 8.83896 6.78176 8.81319C6.72367 8.75171 6.67787 8.67969 6.64675 8.60096C6.57812 8.44524 6.57812 8.26789 6.64675 8.11224C6.67937 8.03442 6.72503 7.96277 6.78176 7.90032L6.87781 7.82309C6.91375 7.79868 6.95285 7.77917 6.99399 7.76501C7.03037 7.74655 7.06932 7.73359 7.10955 7.72674C7.1919 7.7073 7.27771 7.7073 7.36006 7.72674C7.4027 7.73269 7.44406 7.74557 7.48248 7.76501C7.52196 7.77789 7.55895 7.79755 7.59172 7.82309C7.6263 7.84569 7.6587 7.87154 7.68838 7.90032C7.75046 7.95968 7.79868 8.03208 7.82964 8.11224C7.89827 8.26797 7.89827 8.44531 7.82964 8.60096C7.7986 8.6812 7.75038 8.7536 7.68838 8.81319C7.65877 8.84189 7.62638 8.86766 7.59172 8.89011C7.55895 8.91565 7.52196 8.93532 7.48248 8.9482C7.44406 8.96756 7.4027 8.98067 7.36006 8.98685C7.31975 8.99423 7.27907 8.99852 7.23816 8.99973Z" fill="black"/>
<path d="M31.6679 5.14225C31.4975 5.14105 31.334 5.0743 31.2115 4.95579C30.9619 4.70416 30.963 4.29809 31.2139 4.04781C31.4649 3.79754 31.871 3.79754 32.1219 4.04781C32.3729 4.29809 32.3739 4.70416 32.1244 4.95579C32.0016 5.07407 31.8383 5.14082 31.6679 5.14225Z" fill="black"/>
<path d="M35.5253 6.42792C35.2654 6.42687 35.0314 6.27002 34.9317 6.02999C34.832 5.78988 34.886 5.51347 35.0688 5.32859C35.2227 5.17678 35.4422 5.11169 35.654 5.15501C35.6941 5.16201 35.7331 5.1749 35.7695 5.19328C35.8104 5.20744 35.8492 5.22695 35.8849 5.25136C35.917 5.27705 35.9496 5.30282 35.9816 5.32859C36.2302 5.5821 36.2302 5.98795 35.9816 6.24146C35.9496 6.26715 35.917 6.29292 35.8849 6.31838C35.8492 6.34279 35.8104 6.3623 35.7695 6.37647C35.733 6.39485 35.6941 6.40781 35.654 6.41512C35.6114 6.42235 35.5685 6.42672 35.5253 6.42792Z" fill="black"/>
<path d="M36.1681 10.2854C35.9979 10.2829 35.835 10.2163 35.7116 10.0989C35.6841 10.0683 35.6583 10.0361 35.6344 10.0026C35.6099 9.96677 35.5906 9.92782 35.5766 9.88668C35.5581 9.85014 35.545 9.81112 35.5377 9.77081C35.5304 9.7284 35.5262 9.68545 35.5252 9.64243C35.5274 9.47217 35.594 9.30914 35.7116 9.18596C35.865 9.03799 36.0804 8.97335 36.2899 9.01238C36.3325 9.01833 36.3739 9.03121 36.4123 9.05065C36.4518 9.06353 36.4888 9.0832 36.5215 9.10874C36.5585 9.13081 36.593 9.15665 36.6245 9.18596C36.7419 9.30921 36.8084 9.47224 36.811 9.64243C36.81 9.68553 36.8056 9.72847 36.7978 9.77081C36.7911 9.81119 36.7781 9.85022 36.7595 9.88668C36.7454 9.92767 36.726 9.96662 36.7017 10.0026C36.676 10.0346 36.6503 10.0666 36.6245 10.0989C36.5925 10.1246 36.5599 10.1504 36.5215 10.1758C36.4888 10.2014 36.4518 10.221 36.4123 10.2339C36.3739 10.2533 36.3325 10.2664 36.2899 10.2726C36.2497 10.2799 36.209 10.2842 36.1681 10.2854Z" fill="black"/>
<path d="M35.5253 13.4999C35.3551 13.4975 35.1921 13.4309 35.0688 13.3135C35.0121 13.251 34.9664 13.1792 34.9338 13.1013C34.8652 12.9455 34.8652 12.7682 34.9338 12.6125C34.9664 12.5347 35.0121 12.4631 35.0688 12.4006C35.3265 12.1627 35.7239 12.1627 35.9817 12.4006C36.0384 12.4631 36.0841 12.5347 36.1167 12.6125C36.1853 12.7683 36.1853 12.9456 36.1167 13.1013C36.0841 13.1792 36.0384 13.251 35.9817 13.3135C35.859 13.4318 35.6956 13.4985 35.5253 13.4999Z" fill="black"/>
<path d="M31.6679 14.1428C31.4968 14.1444 31.3324 14.0772 31.2115 13.9563C31.0905 13.8354 31.0233 13.6709 31.025 13.4999C31.0226 13.4154 31.0403 13.3317 31.0765 13.2554C31.1091 13.1775 31.1547 13.1059 31.2115 13.0434C31.4692 12.8055 31.8665 12.8055 32.1243 13.0434C32.1811 13.1059 32.2267 13.1775 32.2593 13.2554C32.2923 13.3327 32.3098 13.4158 32.3108 13.4999C32.3125 13.6709 32.2453 13.8354 32.1243 13.9563C32.0033 14.0772 31.8389 14.1444 31.6679 14.1428Z" fill="black"/>
<path d="M32.9537 8.99957C32.9105 8.99837 32.8675 8.99407 32.825 8.98669C32.7848 8.97953 32.7459 8.9665 32.7095 8.94804C32.6683 8.93395 32.6293 8.91436 32.5933 8.88996C32.5613 8.86449 32.5293 8.8388 32.4973 8.81303C32.3787 8.69061 32.3118 8.52705 32.3108 8.35656C32.3131 8.18629 32.3797 8.02326 32.4973 7.90008C32.5276 7.87236 32.5597 7.84659 32.5933 7.82286C32.6292 7.79845 32.6683 7.77894 32.7095 7.76477C32.7459 7.74632 32.7848 7.73336 32.8251 7.7265C33.0368 7.68326 33.2562 7.74835 33.4102 7.90008C33.5956 8.08398 33.6514 8.36183 33.5512 8.60307C33.451 8.84445 33.2149 9.00108 32.9537 8.99957Z" fill="black"/>
<path d="M20.096 9.64253C19.7471 9.64253 19.4619 9.36438 19.4531 9.01564C19.4041 7.03988 19.0444 6.50626 18.9546 6.40327C18.6464 6.31498 18.4504 6.01325 18.495 5.69585C18.5396 5.37844 18.8111 5.14233 19.1316 5.14233C19.6961 5.14233 20.6553 5.64145 20.7388 8.98369C20.7476 9.33854 20.4671 9.63341 20.1122 9.6423L20.096 9.64253Z" fill="black"/>
</svg>
