<svg width="25" height="20" viewBox="0 0 25 20" fill="none" xmlns="http://www.w3.org/2000/svg">
<path d="M2.40202 1.88217L7.15303 6.06256L11.3859 0.850808C11.5044 0.705107 11.6543 0.588023 11.8243 0.508275C11.9944 0.428527 12.1802 0.38817 12.368 0.39021C12.5558 0.392251 12.7408 0.436635 12.909 0.520058C13.0773 0.603481 13.2246 0.723793 13.3399 0.872035L17.3792 6.06131L22.2838 1.82099C22.4764 1.65481 22.7152 1.55142 22.9682 1.52467C23.2211 1.49791 23.4763 1.54906 23.6994 1.67128C23.9225 1.79349 24.1029 1.98093 24.2166 2.20852C24.3302 2.4361 24.3717 2.69297 24.3353 2.94475L22.4624 15.8642H2.24345L0.341796 3.00343C0.304022 2.75026 0.344974 2.49159 0.459105 2.26246C0.573236 2.03334 0.755031 1.84482 0.979868 1.72246C1.2047 1.60009 1.46172 1.54979 1.7161 1.57835C1.97048 1.60692 2.20993 1.71298 2.40202 1.88217ZM2.34084 17.1129H22.3188V18.3615C22.3188 18.6926 22.1872 19.0102 21.9531 19.2444C21.7189 19.4786 21.4013 19.6101 21.0702 19.6101H3.58946C3.25831 19.6101 2.94071 19.4786 2.70655 19.2444C2.47239 19.0102 2.34084 18.6926 2.34084 18.3615V17.1129Z" fill="#FFD056"/>
</svg>
