<svg width="16" height="14" viewBox="0 0 16 14" fill="none" xmlns="http://www.w3.org/2000/svg">
<path d="M5.38109 13.094C10.71 13.094 13.6255 8.4044 13.6255 4.33888C13.6255 4.20704 13.6227 4.07228 13.6172 3.94044C14.1843 3.50488 14.6738 2.96537 15.0625 2.34728C14.5343 2.59684 13.9735 2.75983 13.3993 2.83067C14.0039 2.44578 14.4566 1.84113 14.6735 1.12882C14.1047 1.48681 13.4826 1.73935 12.834 1.8756C12.3969 1.38244 11.8191 1.05591 11.1897 0.946496C10.5604 0.83708 9.91466 0.95087 9.35233 1.27027C8.79001 1.58968 8.34243 2.0969 8.07879 2.71353C7.81515 3.33016 7.75014 4.02185 7.8938 4.68165C6.742 4.62027 5.6152 4.30253 4.58645 3.74903C3.55771 3.19552 2.64998 2.41861 1.92211 1.46866C1.55217 2.14599 1.43897 2.94749 1.60551 3.71027C1.77206 4.47305 2.20585 5.13987 2.81872 5.57521C2.35861 5.55969 1.90858 5.42814 1.50581 5.19142V5.2295C1.5054 5.94031 1.7368 6.62933 2.16067 7.17945C2.58455 7.72956 3.17474 8.10681 3.83092 8.24708C3.4047 8.37092 2.95737 8.38896 2.52353 8.29981C2.70869 8.91111 3.06895 9.44577 3.55403 9.82917C4.0391 10.2126 4.62479 10.4256 5.22936 10.4385C4.20299 11.2947 2.93512 11.759 1.62996 11.7568C1.3985 11.7565 1.16727 11.7414 0.9375 11.7117C2.2634 12.6151 3.80578 13.0948 5.38109 13.094Z" fill="#1F1F1F"/>
</svg>
