<svg width="16" height="14" viewBox="0 0 16 14" fill="none" xmlns="http://www.w3.org/2000/svg">
<path d="M8 0.913818C9.50143 0.913818 10.7031 0.955409 11.6523 1.10815C12.6022 1.26102 13.3587 1.53354 13.9199 2.0437C14.4873 2.55953 14.7923 3.2597 14.96 4.13159C15.1261 4.99537 15.167 6.0797 15.167 7.41382C15.167 8.74795 15.1261 9.83227 14.96 10.696C14.7923 11.5679 14.4873 12.2681 13.9199 12.7839C13.3587 13.2941 12.6023 13.5676 11.6523 13.7205C10.7032 13.8732 9.50138 13.9138 8 13.9138C6.49862 13.9138 5.29684 13.8732 4.34766 13.7205C3.39773 13.5676 2.64127 13.2941 2.08008 12.7839C1.51271 12.2681 1.20774 11.5679 1.04004 10.696C0.873928 9.83227 0.833008 8.74795 0.833008 7.41382C0.833008 6.0797 0.873929 4.99537 1.04004 4.13159C1.20774 3.2597 1.5127 2.55953 2.08008 2.0437C2.64125 1.53354 3.39776 1.26102 4.34766 1.10815C5.29686 0.955409 6.49857 0.913818 8 0.913818ZM6.92383 4.98511C6.76937 4.89246 6.57666 4.88953 6.41992 4.97827C6.26323 5.06704 6.167 5.23373 6.16699 5.41382V9.41382C6.16699 9.59391 6.26323 9.7606 6.41992 9.84937C6.57666 9.93811 6.76937 9.93518 6.92383 9.84253L10.2568 7.84253C10.4074 7.75217 10.5 7.58945 10.5 7.41382C10.5 7.23819 10.4074 7.07547 10.2568 6.98511L6.92383 4.98511Z" fill="#848A98"/>
</svg>
